<svg width="23" height="23" viewBox="0 0 23 23" fill="none" xmlns="http://www.w3.org/2000/svg">
<path d="M20.1429 15.0199C20.5762 13.8654 20.7729 12.6355 20.7212 11.4034C20.6695 10.1713 20.3705 8.96222 19.842 7.84805L17.228 2.3252L11.1374 2.82272C9.90859 2.92194 8.71225 3.26726 7.61959 3.83814C6.52692 4.40903 5.56023 5.19383 4.77699 6.14586L3.36968 6.20855C3.24427 6.21424 3.12234 6.2514 3.01508 6.31662C2.90782 6.38184 2.81868 6.47302 2.75593 6.58175C2.69317 6.69047 2.65877 6.81324 2.65595 6.93875C2.65313 7.06425 2.68196 7.18845 2.73976 7.29988L3.37421 8.52161C2.8878 9.72689 2.66392 11.022 2.71754 12.3206C2.77116 13.6193 3.10104 14.8915 3.68515 16.0526L6.2896 21.2685L12.1103 20.9174C13.4079 20.8428 14.6746 20.4923 15.826 19.8894C16.9775 19.2866 17.9872 18.4451 18.7878 17.4213L20.1629 17.3601C20.2884 17.3544 20.4105 17.3173 20.5178 17.252C20.6251 17.1868 20.7143 17.0956 20.7771 16.9868C20.8398 16.878 20.8741 16.7551 20.8769 16.6295C20.8797 16.504 20.8508 16.3797 20.7929 16.2683L20.1429 15.0199Z" fill="white"/>
<path d="M15.1521 13.7396C15.3445 13.4321 15.4576 13.0817 15.4813 12.7198C15.505 12.3579 15.4386 11.9957 15.288 11.6658L15.8497 10.6933L14.8752 10.1306C14.8293 9.7721 14.7013 9.42907 14.501 9.12821C14.3007 8.82735 14.0337 8.5768 13.7207 8.39609C13.4077 8.21537 13.0573 8.10938 12.6966 8.08636C12.3359 8.06334 11.9748 8.12393 11.6414 8.26339L10.6674 7.70117L10.1057 8.67364C9.74835 8.72057 9.40666 8.8491 9.10697 9.04929C8.80728 9.24948 8.55763 9.51595 8.37745 9.82807C8.19726 10.1402 8.09134 10.4896 8.06785 10.8492C8.04436 11.2089 8.10397 11.5691 8.24203 11.902L7.67529 12.8835L8.65527 13.4492C8.70316 13.8054 8.8321 14.1458 9.03216 14.4444C9.23221 14.7429 9.49804 14.9916 9.80925 15.1713C10.1205 15.351 10.4687 15.4569 10.8273 15.481C11.1859 15.505 11.5452 15.4465 11.8776 15.3099L12.8571 15.8756L13.4239 14.8941C13.785 14.8597 14.1318 14.7362 14.4335 14.5347C14.7351 14.3332 14.982 14.06 15.1521 13.7396V13.7396Z" fill="#10B990"/>
<path d="M8.13022 18.0771C8.09712 18.0145 8.06398 17.9523 8.02988 17.8896C6.38235 14.7861 4.779 11.9675 6.56796 8.86853C6.581 8.84647 6.59454 8.8259 6.60708 8.80433L3.46045 6.98779L4.23883 8.48687C3.72531 9.62437 3.47194 10.8621 3.49718 12.1099C3.52243 13.3576 3.82567 14.5841 4.38478 15.6999L6.75805 20.4524L8.12918 18.0771H8.13022Z" fill="#234D69"/>
<path d="M16.9221 14.7607C16.9095 14.7828 16.8985 14.8049 16.886 14.8269C16.4936 15.5209 15.9604 16.125 15.3206 16.6006C14.6809 17.0762 13.9487 17.4127 13.1711 17.5884C11.5838 17.9228 9.96496 18.0847 8.34285 18.0713L8.13071 18.0789L6.75952 20.4541L12.0622 20.1331C13.3081 20.0595 14.5218 19.7088 15.615 19.1067C16.7082 18.5046 17.6533 17.6661 18.3815 16.6525L20.0686 16.5773L16.9221 14.7607Z" fill="#173F58"/>
<path d="M14.6746 6.74482C16.0279 7.51713 17.0225 8.79138 17.4431 10.2917C17.8637 11.7919 17.6765 13.3975 16.922 14.7608L20.0686 16.5778L19.2807 15.0602C19.7426 13.9685 19.968 12.7913 19.942 11.6061C19.9161 10.4209 19.6394 9.2547 19.1302 8.18421L16.7485 3.15186L14.6736 6.74532L14.6746 6.74482Z" fill="#D65357"/>
<path d="M14.6741 6.74434L16.7489 3.15088L11.1995 3.60225C10.0177 3.69689 8.86941 4.0408 7.83017 4.61134C6.79092 5.18188 5.88437 5.9661 5.17013 6.91236L3.46191 6.98859L6.60848 8.80513C7.41197 7.47024 8.70894 6.50552 10.2185 6.11982C11.7281 5.73412 13.3288 5.95849 14.6741 6.74434V6.74434Z" fill="#EB5E60"/>
</svg>
